# xmcd CD database file
#
# Track frame offsets:
#	225
#	11797
#	25836
#	44681
#	61306
#	73096
#	89932
#	103174
#	118310
#	136049
#	149633
#	166989
#	182434
#	193200
#	205134
#	220236
#	234023
#	248937
#	259850
#	273320
#
# Disc length: 3899 seconds
#
# Revision: 0
# Processed by: cddbd v1.4PL0 Copyright (c) Steve Scherf et al.
# Submitted via: Feurio! 1.66 - http://www.feurio.com
#
DISCID=380f3814
DTITLE=Don Williams - Cafe Carolina and Portrait
DYEAR=1900
DGENRE=Country
TTITLE0=The Only Game In Town
TTITLE1=Walkin' A Broken Heart
TTITLE2=Maggie's Dream
TTITLE3=That's The Thing About Love
TTITLE4=Leavin'
TTITLE5=Beautiful Woman
TTITLE6=True Blue Hearts
TTITLE7=I'll Never Need Another You
TTITLE8=It's Time For Love
TTITLE9=I'll Be Faithful To You
TTITLE10=It Only Rains On Me
TTITLE11=We've Never Tried It With Each Other
TTITLE12=We're All The Way
TTITLE13=Circle Driveway
TTITLE14=You Get To Me
TTITLE15=Steal My Heart Away
TTITLE16=Love's Endless War
TTITLE17=Woman, You Should Be In Movies
TTITLE18=Love Me Over Again
TTITLE19=Good Ole Boys Like Me
EXTD=
EXTT0=Kommentar: Café Carolina\r\n
EXTT1=Kommentar: Café Carolina\r\n
EXTT2=Kommentar: Café Carolina\r\n
EXTT3=Kommentar: Café Carolina\r\n
EXTT4=Kommentar: Café Carolina\r\n
EXTT5=Kommentar: Café Carolina\r\n
EXTT6=Kommentar: Café Carolina\r\n
EXTT7=Kommentar: Café Carolina\r\n
EXTT8=Kommentar: Café Carolina\r\n
EXTT9=Kommentar: Café Carolina\r\n
EXTT10=Kommentar: Portrait\r\n
EXTT11=Kommentar: Portrait\r\n
EXTT12=Kommentar: Portrait\r\n
EXTT13=Kommentar: Portrait\r\n
EXTT14=Kommentar: Portrait\r\n
EXTT15=Kommentar: Portrait\r\n
EXTT16=Kommentar: Portrait\r\n
EXTT17=Kommentar: Portrait\r\n
EXTT18=Kommentar: Portrait\r\n
EXTT19=Kommentar: Portrait\r\n
PLAYORDER=
